<svg width="512" height="512" viewBox="0 0 512 512" fill="none" xmlns="http://www.w3.org/2000/svg">
  <rect width="512" height="512" rx="128" fill="#1f2937"/>
  <g transform="translate(128, 128)">
    <!-- Dice 1 -->
    <rect x="0" y="0" width="80" height="80" rx="12" fill="#3b82f6" stroke="#60a5fa" stroke-width="2"/>
    <circle cx="40" cy="40" r="6" fill="white"/>
    
    <!-- Dice 2 -->
    <rect x="100" y="0" width="80" height="80" rx="12" fill="#ef4444" stroke="#f87171" stroke-width="2"/>
    <circle cx="120" cy="20" r="6" fill="white"/>
    <circle cx="160" cy="60" r="6" fill="white"/>
    
    <!-- Dice 3 -->
    <rect x="200" y="0" width="80" height="80" rx="12" fill="#10b981" stroke="#34d399" stroke-width="2"/>
    <circle cx="220" cy="20" r="6" fill="white"/>
    <circle cx="240" cy="40" r="6" fill="white"/>
    <circle cx="260" cy="60" r="6" fill="white"/>
    
    <!-- Dice 4 -->
    <rect x="0" y="100" width="80" height="80" rx="12" fill="#f59e0b" stroke="#fbbf24" stroke-width="2"/>
    <circle cx="20" cy="120" r="6" fill="white"/>
    <circle cx="60" cy="120" r="6" fill="white"/>
    <circle cx="20" cy="160" r="6" fill="white"/>
    <circle cx="60" cy="160" r="6" fill="white"/>
    
    <!-- Dice 5 -->
    <rect x="100" y="100" width="80" height="80" rx="12" fill="#8b5cf6" stroke="#a78bfa" stroke-width="2"/>
    <circle cx="120" cy="120" r="6" fill="white"/>
    <circle cx="160" cy="120" r="6" fill="white"/>
    <circle cx="140" cy="140" r="6" fill="white"/>
    <circle cx="120" cy="160" r="6" fill="white"/>
    <circle cx="160" cy="160" r="6" fill="white"/>
    
    <!-- Dice 6 -->
    <rect x="200" y="100" width="80" height="80" rx="12" fill="#ec4899" stroke="#f472b6" stroke-width="2"/>
    <circle cx="220" cy="120" r="6" fill="white"/>
    <circle cx="260" cy="120" r="6" fill="white"/>
    <circle cx="220" cy="140" r="6" fill="white"/>
    <circle cx="260" cy="140" r="6" fill="white"/>
    <circle cx="220" cy="160" r="6" fill="white"/>
    <circle cx="260" cy="160" r="6" fill="white"/>
  </g>
</svg> 